<svg width="45" height="45" viewBox="0 0 45 45" fill="none" xmlns="http://www.w3.org/2000/svg">
<path d="M26.625 5.39062C24.3251 5.39063 22.1194 6.30427 20.4931 7.93056C18.8668 9.55685 17.9531 11.7626 17.9531 14.0625V18.8906H13.3125C13.08 18.8906 12.8906 19.0781 12.8906 19.3125V25.6875C12.8906 25.92 13.0781 26.1094 13.3125 26.1094H17.9531V39.1875C17.9531 39.42 18.1406 39.6094 18.375 39.6094H24.75C24.9825 39.6094 25.1719 39.4219 25.1719 39.1875V26.1094H29.8538C30.0469 26.1094 30.2156 25.9781 30.2625 25.7906L31.8563 19.4156C31.8719 19.3534 31.8732 19.2885 31.86 19.2257C31.8468 19.1629 31.8195 19.1039 31.7801 19.0533C31.7406 19.0027 31.6902 18.9617 31.6326 18.9335C31.575 18.9054 31.5117 18.8907 31.4475 18.8906H25.1719V14.0625C25.1719 13.8717 25.2095 13.6827 25.2825 13.5064C25.3555 13.3301 25.4626 13.1699 25.5975 13.035C25.7324 12.9001 25.8926 12.793 26.0689 12.72C26.2452 12.647 26.4342 12.6094 26.625 12.6094H31.5C31.7325 12.6094 31.9219 12.4219 31.9219 12.1875V5.8125C31.9219 5.58 31.7344 5.39062 31.5 5.39062H26.625Z" fill="black"/>
</svg>
