<svg width="43" height="43" viewBox="0 0 43 43" fill="none" xmlns="http://www.w3.org/2000/svg">
<path d="M35.1167 37.625L23.8292 26.3375C22.9333 27.0542 21.9031 27.6215 20.7385 28.0396C19.574 28.4576 18.3347 28.6667 17.0208 28.6667C13.766 28.6667 11.0116 27.5391 8.75767 25.284C6.50375 23.0289 5.37619 20.2745 5.375 17.0208C5.375 13.766 6.50256 11.0116 8.75767 8.75767C11.0128 6.50375 13.7672 5.37619 17.0208 5.375C20.2757 5.375 23.0301 6.50256 25.284 8.75767C27.5379 11.0128 28.6655 13.7672 28.6667 17.0208C28.6667 18.3347 28.4576 19.574 28.0396 20.7385C27.6215 21.9031 27.0542 22.9333 26.3375 23.8292L37.625 35.1167L35.1167 37.625ZM17.0208 25.0833C19.2604 25.0833 21.1644 24.2992 22.7327 22.7309C24.301 21.1626 25.0845 19.2592 25.0833 17.0208C25.0833 14.7812 24.2992 12.8773 22.7309 11.309C21.1626 9.74069 19.2592 8.95714 17.0208 8.95833C14.7812 8.95833 12.8773 9.74249 11.309 11.3108C9.74069 12.8791 8.95714 14.7824 8.95833 17.0208C8.95833 19.2604 9.74249 21.1644 11.3108 22.7327C12.8791 24.301 14.7824 25.0845 17.0208 25.0833Z" fill="black"/>
</svg>
