<svg width="322" height="335" viewBox="0 0 322 335" fill="none" xmlns="http://www.w3.org/2000/svg">
<path fill-rule="evenodd" clip-rule="evenodd" d="M189.579 65.1916C185.132 60.5296 180.624 55.7355 176.054 50.8124C166.776 40.8373 161.763 35.2662 160.998 34.0991C160.237 32.932 161.251 27.5575 164.049 17.9693C165.572 13.1752 167.096 8.50679 168.622 3.97704C167.861 7.34614 167.225 11.0989 166.716 15.2482C165.828 23.2825 166.144 28.9181 167.668 32.155C170.209 37.336 180.052 48.0236 197.203 64.2211L240.071 50.619L197.203 71.0238L160.998 97.2609L154.332 132.242L197.203 120.58L236.262 129.327L277.226 144.873L320.097 129.327L283.893 147.788L298.183 165.278L322 180.828L295.326 171.11L279.132 154.59L240.071 139.044L255.315 162.364C251.503 157.827 247.056 153.162 241.977 148.371C231.814 138.654 223.561 132.951 217.208 131.268C210.855 129.714 200.06 130.23 184.816 132.825L163.859 137.1L124.797 193.459L100.029 239.128L99.0772 284.799L170.525 233.299L154.332 251.759L165.762 248.845L154.332 260.506L167.668 257.592C157.253 262.773 146.775 268.408 136.23 274.498C115.273 286.679 104.792 294.971 104.792 299.375C104.792 303.779 107.649 309.998 113.367 318.032C116.288 321.917 119.149 325.415 121.94 328.527C100.983 323.346 87.9604 321.076 82.8809 321.724C79.7074 322.111 75.8954 324.316 71.4481 328.33C69.2892 330.403 67.3832 332.411 65.7333 334.356C64.2097 332.802 62.0477 331.119 59.2535 329.303C53.9211 325.931 48.4592 324.052 42.8676 323.668L0 331.441L3.80884 328.527C4.69704 327.875 14.2902 323.146 32.579 314.338C48.5856 306.564 57.73 300.606 60.0184 296.46C63.1919 290.757 62.5597 280.656 58.1124 266.142L50.4916 245.93L74.3087 238.157C77.9911 234.14 81.9927 229.156 86.3105 223.191C95.0755 211.401 101.236 200.842 104.792 191.515C108.348 182.185 109.872 171.629 109.366 159.836L107.649 144.873C97.2375 134.508 86.7561 124.014 76.2115 113.391C55.255 92.1412 44.7736 80.9345 44.7736 79.7674C42.8676 42.8426 41.6001 22.7602 40.9648 19.5233C40.3263 16.2864 30.4833 9.80607 11.4297 0.0888672L46.6796 16.6088L48.5856 50.619L61.9213 32.155L47.631 63.2507L77.1661 100.175L120.034 146.817L115.273 187.627L141.948 145.844L154.332 94.3432L189.579 65.1916Z" fill="black"/>
</svg>
