<svg width="45" height="18" viewBox="0 0 45 18" fill="none" xmlns="http://www.w3.org/2000/svg">
<g clip-path="url(#clip0_128_199)">
<path d="M7.0154 3.96037C7.5341 3.78074 8.07734 3.68959 8.62406 3.69046C11.0778 3.69046 13.1264 5.50234 13.5957 7.91068L17.074 7.17305C16.2757 3.0802 12.7966 3.88755e-06 8.62406 3.88755e-06C7.69482 -0.000896519 6.77156 0.154618 5.89014 0.460511L7.0154 3.96037Z" fill="#FFCC00"/>
<path d="M2.91015 15.6795L5.26236 12.9148C4.21242 11.9478 3.5499 10.5365 3.5499 8.96406C3.5499 7.39286 4.21145 5.98219 5.26078 5.01631L2.90839 2.25134C1.12518 3.89364 0 6.29257 0 8.96406C0 11.6372 1.12562 14.0369 2.91015 15.6795Z" fill="#00A0DE"/>
<path d="M13.5945 10.0225C13.1232 12.4296 11.0767 14.238 8.62372 14.238C8.06078 14.238 7.51876 14.1436 7.01357 13.9671L5.88672 17.4684C6.7462 17.7667 7.6665 17.9282 8.62372 17.9282C12.7922 17.9282 16.271 14.8531 17.0723 10.764L13.5945 10.0225Z" fill="#EC3413"/>
<path d="M20.1153 13.0315C20.0013 12.8396 19.8464 12.5326 19.7532 12.3067C19.2024 10.9773 19.176 9.60152 19.6412 8.28085C20.1527 6.83244 21.1297 5.72357 22.392 5.15899C23.9791 4.44895 25.7343 4.58893 27.2554 5.52721C28.2216 6.10349 28.9067 6.99325 29.4268 8.25124L29.4751 8.37359L29.5651 8.61663C29.5796 8.65583 29.5938 8.69393 29.608 8.73048L20.1153 13.0315ZM23.2851 7.29313C22.1581 7.79667 21.5771 8.89577 21.6965 10.1845L26.4707 8.0484C25.6497 7.04524 24.5811 6.71284 23.2851 7.29313ZM28.9113 13.2234L27.066 11.9408L27.0633 11.9436L26.9645 11.8744C26.6797 12.355 26.2351 12.7442 25.6742 12.997C24.6071 13.4795 23.6181 13.3555 22.908 12.7079L22.8427 12.8112C22.842 12.81 22.8418 12.8091 22.8405 12.8091L21.6294 14.6929C21.9307 14.9105 22.2534 15.0943 22.592 15.2411C23.93 15.8188 25.2988 15.7921 26.6474 15.1823C27.6229 14.7428 28.3883 14.0727 28.9113 13.2234V13.2234ZM32.926 2.3847V12.8576L34.4922 13.5175L33.6022 15.6763L31.8734 14.9279C31.4853 14.7533 31.2213 14.4858 31.0212 14.1841C30.8301 13.8766 30.6871 13.4544 30.6871 12.8861V2.3847H32.926ZM36.9835 10.1896C36.9843 9.2978 37.3632 8.49803 37.9626 7.95447L36.3557 6.09179C35.2658 7.09321 34.5794 8.5566 34.5782 10.187C34.5764 11.818 35.2618 13.2828 36.3505 14.2869L37.9555 12.4224C37.359 11.8767 36.9828 11.0793 36.9835 10.1896ZM39.8385 13.1621C39.5221 13.1612 39.2174 13.1069 38.9332 13.0085L38.1659 15.3805C38.7042 15.5681 39.2682 15.664 39.836 15.6643C42.3803 15.6669 44.5048 13.7901 44.9971 11.2953L42.6383 10.7945C42.3701 12.1468 41.2183 13.1631 39.8385 13.1621ZM39.8455 4.7205C39.2785 4.71934 38.715 4.81364 38.1769 4.99973L38.9376 7.3739C39.2298 7.27339 39.5355 7.22213 39.8432 7.22204C41.2263 7.22342 42.3789 8.24567 42.6408 9.60179L44.9998 9.10437C44.5143 6.60584 42.3919 4.72215 39.8455 4.7205Z" fill="black"/>
</g>
<defs>
<clipPath id="clip0_128_199">
<rect width="45" height="18" fill="white"/>
</clipPath>
</defs>
</svg>
