<svg width="49" height="21" viewBox="0 0 49 21" fill="none" xmlns="http://www.w3.org/2000/svg">
<path d="M13.4516 0H8.37307C6.12921 0.104497 4.29496 0.994279 3.76534 2.82925C3.48924 3.78631 3.33726 4.83722 3.12126 5.82933C2.02355 10.8736 1.05005 16.0566 0 21H39.5369C42.5935 21 44.6921 20.3641 45.2593 17.9757C45.5228 16.8661 45.7752 15.6093 46.0273 14.3903C47.0099 9.63731 47.9935 4.88452 49 0H13.4516Z" fill="#B82126"/>
<path d="M33.2288 12.2788C32.6863 12.7227 31.1636 12.8487 31.3194 11.7878C31.4488 10.9065 32.5967 10.7193 33.8408 10.8466C33.7483 11.3286 33.6422 11.9406 33.2288 12.2789V12.2788ZM31.5151 8.84145C31.4634 9.08456 31.3839 9.30455 31.3194 9.53704C31.9405 9.40695 33.8749 9.00787 34.0612 9.70077C34.1231 9.93105 34.0163 10.1756 33.9388 10.3555C32.1896 10.217 30.764 10.46 30.3892 11.5013C30.138 12.1988 30.4173 12.8852 30.9523 13.0769C31.9825 13.4456 33.2357 13.0231 33.6695 12.4425C33.6244 12.6435 33.5817 12.8465 33.596 13.0973H34.5017C34.5114 12.3723 34.6376 11.7854 34.771 11.133C34.8848 10.5775 35.0988 10.0274 35.0647 9.53712C34.9871 8.41421 32.7611 8.8113 31.5151 8.84145ZM40.5973 12.6266C39.8886 12.6393 39.5363 12.2728 39.5201 11.665C39.4919 10.6007 40.0505 9.41811 41.1848 9.31207C41.7129 9.26269 42.0952 9.36532 42.4822 9.4758C42.127 10.6714 42.2552 12.5969 40.5973 12.6266ZM42.9472 7.00008C42.8571 7.66117 42.7365 8.29701 42.5802 8.90278C39.9981 8.21978 38.4146 9.80753 38.443 11.7673C38.4486 12.1463 38.5266 12.5222 38.8103 12.7903C39.299 13.2524 40.6986 13.3629 41.4051 12.9745C41.542 12.8993 41.6816 12.7626 41.7724 12.6676C41.8404 12.5961 41.9486 12.4091 41.9681 12.4629C41.931 12.6706 41.8755 12.863 41.8703 13.0973H42.825C43.0089 10.8913 43.5779 9.007 44 7H42.9473L42.9472 7.00008ZM15.9951 12.2993C15.4318 12.7979 14.0473 12.7902 13.9388 11.9514C13.8915 11.5865 14.0542 11.2038 14.1346 10.8261C14.216 10.4439 14.2745 10.0772 14.3548 9.74169C14.9096 9.17556 16.5396 9.10727 16.705 10.0486C16.8485 10.8659 16.4615 11.8865 15.9951 12.2993ZM16.8274 8.84145C15.9365 8.56179 14.8506 8.89566 14.3799 9.21331C14.3815 9.22723 14.3688 9.22913 14.3548 9.23024C14.3629 9.22454 14.3716 9.21893 14.3799 9.21331C14.3799 9.21213 14.3797 9.21097 14.3794 9.20983C14.3873 9.07316 14.4449 8.97804 14.4528 8.84145H13.5471C13.1696 10.9403 12.7221 12.9805 12.2496 15H13.3023C13.4546 14.2134 13.5553 13.3838 13.7674 12.6471C14.0078 13.4218 15.5774 13.2738 16.2398 12.9745C17.6065 12.3568 18.6607 9.41708 16.8274 8.84145ZM21.8213 10.3146H19.3489C19.4271 9.83958 19.9384 9.31737 20.7442 9.29165C21.5025 9.26736 22.0454 9.5243 21.8213 10.3146ZM20.8176 8.75963C20.057 8.80861 19.4141 8.99149 18.9572 9.39389C18.3967 9.88737 17.9429 10.9784 18.0758 11.9719C18.2655 13.3894 20.3771 13.3386 22.0661 12.9949C22.0948 12.7462 22.1668 12.5335 22.2129 12.2993C21.5171 12.5169 20.3092 12.8206 19.5936 12.4425C19.0534 12.157 19.0501 11.434 19.2264 10.8056C20.3616 10.7755 21.5414 10.7813 22.678 10.8056C22.7502 10.3603 22.9566 9.87471 22.7759 9.43488C22.5378 8.85412 21.6852 8.70384 20.8176 8.75963ZM11.5642 8.84145C11.5357 8.84494 11.5376 8.8739 11.5396 8.90278C11.3077 10.3526 10.9939 11.734 10.6584 13.0973H11.7111C11.964 11.6377 12.2537 10.209 12.6168 8.84145H11.5642ZM39.0307 8.86187C38.1004 8.47316 37.3259 9.12547 37.0235 9.51663C37.1095 9.31594 37.1143 9.04728 37.1946 8.84145H36.2644C36.0137 10.3028 35.7112 11.721 35.3587 13.0973H36.4358C36.4426 12.5332 36.5751 12.116 36.6805 11.5627C36.9057 10.3816 37.2361 9.0863 38.8837 9.4758C38.9385 9.27598 38.9612 9.04942 39.0307 8.86187ZM27.2068 12.0947C27.1098 11.8852 27.0846 11.5391 27.1089 11.2763C27.1633 10.685 27.421 9.96524 27.8188 9.63945C28.3678 9.18972 29.4515 9.26411 30.3157 9.51663C30.3426 9.27313 30.4011 9.05599 30.4382 8.82104C29.0206 8.62755 27.6754 8.74792 26.962 9.3734C26.2639 9.98582 25.8061 11.3932 26.1297 12.2788C26.5084 13.3151 28.2064 13.3714 29.5815 12.9745C29.6423 12.7662 29.6744 12.534 29.7283 12.3197C28.977 12.646 27.5407 12.8156 27.2068 12.0947ZM26.6194 8.84145C25.6859 8.52642 24.9522 9.05884 24.6122 9.55762C24.6891 9.33573 24.721 9.07585 24.7833 8.84145H23.8531C23.6257 10.3156 23.2905 11.6995 22.9718 13.0973H24.0246C24.1721 12.2676 24.2357 11.1492 24.563 10.3555C24.8246 9.72135 25.5092 9.18102 26.497 9.4758C26.5108 9.2418 26.591 9.06319 26.6194 8.84145ZM9.6547 7.12282C9.50435 7.9383 9.33497 8.73795 9.16511 9.53712C8.07458 9.5467 6.96114 9.58215 5.90933 9.51655C6.10797 8.73478 6.25046 7.90585 6.44778 7.12274H5.27279C4.85213 9.11748 4.46962 11.1438 4 13.0974H5.19941C5.38764 12.0951 5.56356 11.0828 5.81133 10.1306C6.83417 10.1095 8.06 10.0729 9.04278 10.151C8.84017 11.1411 8.59523 12.0958 8.40634 13.0974H9.60585C9.9912 11.0734 10.3974 9.06667 10.8788 7.1229H9.6548L9.6547 7.12282ZM12.6412 8.02305C12.8511 7.90229 13.1213 7.35191 12.8126 7.12282C12.7148 7.05025 12.5512 7.0292 12.3231 7.06149C12.1113 7.09132 11.9895 7.15138 11.9069 7.24555C11.7738 7.39694 11.6519 7.85346 11.8578 8.02305C12.0584 8.1882 12.5077 8.09981 12.6412 8.02305Z" fill="white"/>
</svg>
