<svg width="34" height="27" viewBox="0 0 34 27" fill="none" xmlns="http://www.w3.org/2000/svg">
<g clip-path="url(#clip0_110_145)">
<path d="M6.18112 26.8658V25.0788C6.18112 24.3936 5.77286 23.947 5.07307 23.947C4.72324 23.947 4.34419 24.0661 4.08175 24.4533C3.87775 24.1256 3.58623 23.947 3.14888 23.947C2.85722 23.947 2.56583 24.0362 2.33248 24.3639V24.0065H1.72021V26.8658H2.33248V25.2872C2.33248 24.781 2.59492 24.5426 3.00318 24.5426C3.41118 24.5426 3.61545 24.8107 3.61545 25.2872V26.8658H4.22771V25.2872C4.22771 24.781 4.51911 24.5426 4.89815 24.5426C5.30642 24.5426 5.51042 24.8107 5.51042 25.2872V26.8658H6.18112ZM15.2484 24.0065H14.2572V23.1428H13.6449V24.0065H13.091V24.5723H13.6448V25.883C13.6448 26.5383 13.9072 26.9254 14.607 26.9254C14.8694 26.9254 15.1608 26.8361 15.3651 26.717L15.1901 26.1808C15.0151 26.2999 14.8111 26.3297 14.6653 26.3297C14.3738 26.3297 14.2572 26.1511 14.2572 25.8531V24.5723H15.2484V24.0065ZM20.4381 23.9468C20.0883 23.9468 19.8551 24.1256 19.7093 24.3639V24.0065H19.097V26.8658H19.7093V25.2575C19.7093 24.781 19.9133 24.5129 20.2923 24.5129C20.4089 24.5129 20.5548 24.5427 20.6714 24.5724L20.8463 23.9768C20.7297 23.947 20.5548 23.947 20.4381 23.947V23.9468ZM12.5953 24.2448C12.3036 24.0362 11.8955 23.947 11.4582 23.947C10.7585 23.947 10.2921 24.3043 10.2921 24.8703C10.2921 25.3469 10.6419 25.6149 11.2542 25.7043L11.5457 25.7341C11.8664 25.7935 12.0413 25.883 12.0413 26.0319C12.0413 26.2403 11.8081 26.3893 11.3999 26.3893C10.9917 26.3893 10.671 26.2403 10.4668 26.0915L10.1753 26.568C10.4961 26.8062 10.9334 26.9254 11.3706 26.9254C12.187 26.9254 12.6536 26.5383 12.6536 26.0021C12.6536 25.4957 12.2746 25.2276 11.6914 25.1384L11.3999 25.1085C11.1374 25.0787 10.9334 25.0192 10.9334 24.8405C10.9334 24.632 11.1374 24.5129 11.4582 24.5129C11.8081 24.5129 12.1579 24.6617 12.3329 24.7511L12.5953 24.2448ZM28.8642 23.947C28.5142 23.947 28.281 24.1256 28.1352 24.3639V24.0065H27.5229V26.8658H28.1352V25.2575C28.1352 24.781 28.3393 24.5129 28.7182 24.5129C28.835 24.5129 28.9808 24.5427 29.0974 24.5724L29.2723 23.9768C29.1557 23.947 28.9808 23.947 28.8642 23.947ZM21.0504 25.4362C21.0504 26.2999 21.6335 26.9254 22.5374 26.9254C22.9455 26.9254 23.237 26.8361 23.5286 26.5978L23.237 26.0915C23.0038 26.2702 22.7706 26.3595 22.5082 26.3595C22.0125 26.3595 21.6627 26.0021 21.6627 25.4362C21.6627 24.9001 22.0125 24.5426 22.5082 24.5129C22.7706 24.5129 23.0038 24.6022 23.237 24.781L23.5286 24.2746C23.237 24.0362 22.9455 23.947 22.5374 23.947C21.6335 23.947 21.0504 24.5724 21.0504 25.4362ZM26.7066 25.4362V24.0065H26.0944V24.3639C25.8902 24.0959 25.5987 23.947 25.2197 23.947C24.4325 23.947 23.8202 24.5724 23.8202 25.4362C23.8202 26.2999 24.4325 26.9254 25.2197 26.9254C25.6278 26.9254 25.9195 26.7765 26.0944 26.5084V26.8658H26.7066V25.4362ZM24.4616 25.4362C24.4616 24.9298 24.7823 24.5129 25.3071 24.5129C25.8027 24.5129 26.1527 24.9001 26.1527 25.4362C26.1527 25.9425 25.8027 26.3595 25.3071 26.3595C24.7823 26.3296 24.4616 25.9425 24.4616 25.4362ZM17.1436 23.947C16.3272 23.947 15.744 24.5426 15.744 25.4362C15.744 26.3297 16.3271 26.9254 17.1727 26.9254C17.5808 26.9254 17.9891 26.8062 18.3098 26.5383L18.0182 26.0915C17.7849 26.2702 17.4934 26.3893 17.2019 26.3893C16.8229 26.3893 16.4438 26.2106 16.3563 25.7041H18.4264V25.466C18.4557 24.5426 17.9309 23.947 17.1436 23.947ZM17.1436 24.483C17.5225 24.483 17.7851 24.7214 17.8433 25.1682H16.3855C16.4438 24.781 16.7062 24.483 17.1436 24.483ZM32.3336 25.4362V22.8747H31.7214V24.3639C31.5172 24.0959 31.2257 23.947 30.8467 23.947C30.0595 23.947 29.4472 24.5724 29.4472 25.4362C29.4472 26.2999 30.0595 26.9254 30.8467 26.9254C31.2549 26.9254 31.5465 26.7765 31.7214 26.5084V26.8658H32.3336V25.4362ZM30.0887 25.4362C30.0887 24.9298 30.4093 24.5129 30.9342 24.5129C31.4298 24.5129 31.7797 24.9001 31.7797 25.4362C31.7797 25.9425 31.4298 26.3595 30.9342 26.3595C30.4093 26.3296 30.0887 25.9425 30.0887 25.4362ZM9.62136 25.4362V24.0065H9.0091V24.3639C8.80496 24.0959 8.51344 23.947 8.13439 23.947C7.34722 23.947 6.73495 24.5724 6.73495 25.4362C6.73495 26.2999 7.34722 26.9254 8.13439 26.9254C8.54266 26.9254 8.83418 26.7765 9.0091 26.5084V26.8658H9.62136V25.4362ZM7.34721 25.4362C7.34721 24.9298 7.66796 24.5129 8.1927 24.5129C8.68836 24.5129 9.03832 24.9001 9.03832 25.4362C9.03832 25.9425 8.68836 26.3595 8.1927 26.3595C7.66796 26.3296 7.34721 25.9425 7.34721 25.4362Z" fill="black"/>
<path d="M12.3911 2.2934H21.5751V19.1516H12.3911V2.2934Z" fill="#FF5F00"/>
<path d="M12.9743 10.7225C12.9743 7.29733 14.5487 4.25922 16.9685 2.29337C15.1902 0.863729 12.9452 0 10.4962 0C4.69399 0 0 4.79528 0 10.7225C0 16.6496 4.69399 21.4451 10.496 21.4451C12.9451 21.4451 15.19 20.5813 16.9685 19.1515C14.5487 17.2156 12.9743 14.1477 12.9743 10.7225Z" fill="#EB001B"/>
<path d="M33.9661 10.7225C33.9661 16.6496 29.2721 21.4451 23.47 21.4451C21.021 21.4451 18.7761 20.5813 16.9976 19.1515C19.4466 17.1858 20.9919 14.1477 20.9919 10.7225C20.9919 7.29733 19.4174 4.25922 16.9976 2.29337C18.7759 0.863729 21.021 0 23.47 0C29.2721 0 33.9661 4.82513 33.9661 10.7225Z" fill="#F79E1B"/>
</g>
<defs>
<clipPath id="clip0_110_145">
<rect width="34" height="27" fill="white"/>
</clipPath>
</defs>
</svg>
