<svg width="57" height="18" viewBox="0 0 57 18" fill="none" xmlns="http://www.w3.org/2000/svg">
<g clip-path="url(#clip0_110_143)">
<path d="M29.479 5.73135C29.4465 8.2288 31.7641 9.62239 33.51 10.451C35.3037 11.3012 35.9062 11.8464 35.8991 12.6067C35.8857 13.7702 34.4683 14.2837 33.1419 14.3037C30.8279 14.3386 29.4824 13.6952 28.4127 13.2085L27.5791 17.0078C28.6523 17.4895 30.6395 17.9095 32.7002 17.928C37.5374 17.928 40.702 15.6023 40.7192 11.9964C40.7381 7.4201 34.2203 7.1668 34.2648 5.1213C34.2802 4.50106 34.8878 3.83918 36.2193 3.6709C36.8783 3.58588 38.6977 3.52082 40.7603 4.44598L41.5699 0.770076C40.4606 0.376679 39.035 -2.06577e-05 37.26 -2.06577e-05C32.7071 -2.06577e-05 29.5048 2.35733 29.479 5.73135ZM49.3491 0.316606C48.4658 0.316606 47.7215 0.818436 47.3893 1.58853L40.4796 17.658H45.3132L46.2751 15.0688H52.1817L52.7397 17.658H57L53.2823 0.316606H49.3491ZM50.0253 5.00116L51.4202 11.513H47.5999L50.0253 5.00116ZM23.6185 0.316822L19.8084 17.6578H24.4145L28.2228 0.316389H23.6185M16.8045 0.316389L12.0103 12.1198L10.071 2.08386C9.84341 0.963522 8.94477 0.316606 7.94682 0.316606H0.10977L0 0.820172C1.60891 1.16022 3.43692 1.70868 4.54441 2.29552C5.22218 2.654 5.41545 2.96738 5.6381 3.81923L9.31126 17.658H14.1788L21.6413 0.316606L16.8045 0.316389Z" fill="url(#paint0_linear_110_143)"/>
</g>
<defs>
<linearGradient id="paint0_linear_110_143" x1="2620.52" y1="53.8915" x2="2671.06" y2="-1787.42" gradientUnits="userSpaceOnUse">
<stop stop-color="#222357"/>
<stop offset="1" stop-color="#254AA5"/>
</linearGradient>
<clipPath id="clip0_110_143">
<rect width="57" height="18" fill="white"/>
</clipPath>
</defs>
</svg>
