<svg width="55" height="55" viewBox="0 0 55 55" fill="none" xmlns="http://www.w3.org/2000/svg">
<path d="M37.96 44.6C35.7141 46.7771 33.2621 46.4333 30.9016 45.4021C28.4037 44.3479 26.1121 44.3021 23.4766 45.4021C20.1766 46.8229 18.435 46.4104 16.4641 44.6C5.2808 33.0729 6.9308 15.5188 19.6266 14.8771C22.7204 15.0375 24.8746 16.5729 26.685 16.7104C29.3891 16.1604 31.9787 14.5792 34.8662 14.7854C38.3266 15.0604 40.9391 16.4354 42.6579 18.9104C35.5079 23.1958 37.2037 32.6146 43.7579 35.25C42.4516 38.6875 40.7558 42.1021 37.9371 44.6229L37.96 44.6ZM26.4558 14.7396C26.1121 9.62917 30.26 5.4125 35.0266 5C35.6912 10.9125 29.6641 15.3125 26.4558 14.7396Z" fill="black"/>
</svg>