<svg width="45" height="45" viewBox="0 0 45 45" fill="none" xmlns="http://www.w3.org/2000/svg">
<path d="M44.6012 18.4452C44.8688 19.9554 45.0022 21.4855 45 23.0182C45 29.8636 42.5038 35.6516 38.1599 39.5692H38.1656C34.3668 43.0088 29.145 45 22.9533 45C16.8657 45 11.0275 42.6295 6.72287 38.4101C2.41829 34.1907 0 28.4679 0 22.5007C0 16.5336 2.41829 10.8108 6.72287 6.59136C11.0275 2.37194 16.8657 0.00148463 22.9533 0.00148463C28.6513 -0.0639273 34.1541 2.03438 38.3091 5.85692L31.7559 12.2805C29.3871 10.067 26.2256 8.85492 22.9533 8.90557C16.9654 8.90557 11.8783 12.8654 10.065 18.1978C9.10359 20.9919 9.10359 24.018 10.065 26.8122H10.0736C11.8956 32.136 16.974 36.0959 22.9619 36.0959C26.0549 36.0959 28.7117 35.3197 30.7718 33.9472H30.7632C31.9594 33.1705 32.9826 32.1642 33.7711 30.9891C34.5596 29.814 35.097 28.4945 35.351 27.1103H22.9533V18.4481L44.6012 18.4452Z" fill="black"/>
</svg>
