<svg width="52" height="52" viewBox="0 0 52 52" fill="none" xmlns="http://www.w3.org/2000/svg">
<path d="M38.9998 13H34.6665C34.6665 8.21171 30.7882 4.33337 25.9998 4.33337C21.2115 4.33337 17.3332 8.21171 17.3332 13H12.9998C10.6165 13 8.6665 14.95 8.6665 17.3334V43.3334C8.6665 45.7167 10.6165 47.6667 12.9998 47.6667H38.9998C41.3832 47.6667 43.3332 45.7167 43.3332 43.3334V17.3334C43.3332 14.95 41.3832 13 38.9998 13ZM25.9998 8.66671C28.3832 8.66671 30.3332 10.6167 30.3332 13H21.6665C21.6665 10.6167 23.6165 8.66671 25.9998 8.66671ZM38.9998 43.3334H12.9998V17.3334H17.3332V21.6667C17.3332 22.8584 18.3082 23.8334 19.4998 23.8334C20.6915 23.8334 21.6665 22.8584 21.6665 21.6667V17.3334H30.3332V21.6667C30.3332 22.8584 31.3082 23.8334 32.4998 23.8334C33.6915 23.8334 34.6665 22.8584 34.6665 21.6667V17.3334H38.9998V43.3334Z" fill="black"/>
</svg>
