<svg width="52" height="52" viewBox="0 0 52 52" fill="none" xmlns="http://www.w3.org/2000/svg">
<path d="M25.9998 8.66663C28.2984 8.66663 30.5028 9.57972 32.1281 11.205C33.7534 12.8303 34.6665 15.0347 34.6665 17.3333C34.6665 19.6318 33.7534 21.8362 32.1281 23.4616C30.5028 25.0869 28.2984 26 25.9998 26C23.7013 26 21.4969 25.0869 19.8716 23.4616C18.2463 21.8362 17.3332 19.6318 17.3332 17.3333C17.3332 15.0347 18.2463 12.8303 19.8716 11.205C21.4969 9.57972 23.7013 8.66663 25.9998 8.66663ZM25.9998 13C24.8506 13 23.7484 13.4565 22.9357 14.2692C22.123 15.0818 21.6665 16.184 21.6665 17.3333C21.6665 18.4826 22.123 19.5848 22.9357 20.3974C23.7484 21.2101 24.8506 21.6666 25.9998 21.6666C27.1491 21.6666 28.2513 21.2101 29.064 20.3974C29.8766 19.5848 30.3332 18.4826 30.3332 17.3333C30.3332 16.184 29.8766 15.0818 29.064 14.2692C28.2513 13.4565 27.1491 13 25.9998 13ZM25.9998 28.1666C31.7848 28.1666 43.3332 31.0483 43.3332 36.8333V43.3333H8.6665V36.8333C8.6665 31.0483 20.2148 28.1666 25.9998 28.1666ZM25.9998 32.2833C19.5648 32.2833 12.7832 35.4466 12.7832 36.8333V39.2166H39.2165V36.8333C39.2165 35.4466 32.4348 32.2833 25.9998 32.2833Z" fill="black"/>
</svg>
