<svg width="81" height="81" viewBox="0 0 81 81" fill="none" xmlns="http://www.w3.org/2000/svg">
<path d="M78.6554 18.5635C76.6589 15.1242 71.3781 11.9 57.722 15.4912C53.1641 12.346 47.8327 10.5075 42.3049 10.1748C36.7772 9.84205 31.2637 11.0278 26.3615 13.6035C21.4592 16.1793 17.355 20.047 14.4931 24.7879C11.6311 29.5288 10.1206 34.9622 10.125 40.5C10.125 41.2594 10.1524 42.0124 10.2072 42.7591C0.177167 52.7955 0.348027 58.9781 2.35404 62.4364C4.23982 65.6891 8.00506 67.0781 12.8714 67.0781C15.969 67.0781 19.5159 66.5149 23.297 65.5246C27.8558 68.6653 33.1868 70.4996 38.713 70.829C44.2392 71.1584 49.7503 69.9702 54.6499 67.3932C59.5495 64.8161 63.6511 60.9483 66.5109 56.2081C69.3708 51.468 70.8799 46.036 70.875 40.5C70.875 39.7375 70.8465 38.9844 70.7896 38.2345C75.3173 33.6846 78.339 29.3087 79.3325 25.5783C80.2248 22.2813 79.4559 19.9336 78.6554 18.5635ZM40.5 17.7187C45.6599 17.7257 50.6652 19.4815 54.6987 22.6996C58.7322 25.9177 61.5558 30.4079 62.7085 35.4375C58.2187 39.4653 52.207 43.8507 44.9044 48.0494C38.0257 52.0014 31.1249 55.1243 24.9423 57.1145C21.6129 53.9911 19.2987 49.9394 18.2997 45.4848C17.3008 41.0303 17.6633 36.3784 19.3401 32.1323C21.0169 27.8863 23.9307 24.2419 27.7037 21.6718C31.4767 19.1018 35.9348 17.7245 40.5 17.7187ZM8.91947 58.6269C8.72646 58.2883 8.86568 56.0261 12.2955 51.7577C13.3609 54.4172 14.7979 56.9121 16.5638 59.168C11.1122 59.9938 9.1283 58.9813 8.91947 58.6269ZM40.5 63.2812C38.0743 63.2816 35.6643 62.8928 33.3619 62.1295C38.6337 59.9836 43.7525 57.4791 48.6822 54.6339C53.5935 51.833 58.3054 48.6962 62.7845 45.2461C61.6909 50.3465 58.8828 54.9184 54.8279 58.2C50.7731 61.4816 45.7164 63.2749 40.5 63.2812ZM72.0045 23.6197C71.5995 25.1321 70.4826 27.0591 68.7171 29.2517C67.6517 26.5888 66.2135 24.0906 64.4456 21.832C69.4543 21.0821 71.7767 21.832 72.0868 22.3731C72.1406 22.4648 72.2071 22.8698 72.0045 23.6197Z" fill="#FC5AB5"/>
</svg>
